# xmcd
#
# Track frame offsets:
#	150
#	13620
#	26257
#	38798
#	50301
#	64322
#	77510
#	89983
#	102963
#	117683
#	135804
#	150510
#	162830
#	176241
#	188939
#	200904
#	215943
#	229131
#	250471
#	260955
#	273130
#	291923
#	315046
#
# Disc length: 4366 seconds
#
# Revision: 9
# Processed by: cddbd v1.5.2PL0 Copyright (c) Steve Scherf et al.
# Submitted via: EasyCDDAExtractor 16.0.6.1
#
DISCID=51110c17
DTITLE=Muddy Waters - JB-149 The Chess Box C 3 (1960-1972)
DYEAR=1989
DGENRE=Blues
TTITLE0=I Feel So Good
TTITLE1=You Shook Me (live)
TTITLE2=You Need Love
TTITLE3=Twenty Four Hours
TTITLE4=Elevate Me Mama (alt. take)
TTITLE5=So Glad I'm Living
TTITLE6=My Love Strikes Like Lightning
TTITLE7=You Don't Have To Go (alt. take)
TTITLE8=Things That I Used To Do
TTITLE9=My Home Is In The Delta
TTITLE10=Good Morning Little Schoolgirl
TTITLE11=The Same Thing
TTITLE12=You Can't Lose What You Ain't Never Had
TTITLE13=Short Dress Woman
TTITLE14=Making Friends
TTITLE15=Black Night (hornless alt. mix)
TTITLE16=Bird Nest On The Ground
TTITLE17=Country Boy (live)
TTITLE18=Sugar Sweet (alt. "Fathers And Sons" take)
TTITLE19=All Aboard (alt. "Fathers And Sons" take)
TTITLE20=Going Down Slow (live)
TTITLE21=Who's Gonna Be Your Sweet Man When I'm Gone (original hornless London
TTITLE21=mix)
TTITLE22=Can't Get No Grindin' (What's The Matter With The Meal)
EXTD=1960 to 1972 YEAR: 1989
EXTT0=live 1960
EXTT1=1962
EXTT2=1962
EXTT3=1963 Previously unreleased on US album
EXTT4=Alternate take 1963 Previously unreleased
EXTT5=1963 Previously unreleased in US
EXTT6=1963 Previously unreleased in US
EXTT7=Alternate take 1963 Previously unreleased
EXTT8=1963 Previously unreleased in US
EXTT9=1963
EXTT10=1963
EXTT11=1964
EXTT12=1964
EXTT13=1964 Previously unreleased on US album
EXTT14=1966
EXTT15=Hornless alternate mix 1966 Previously unreleased
EXTT16=1967
EXTT17=live 1968 Previously unreleased
EXTT18=Alternate "Fathers and Sons" take 1969 Previously unreleased
EXTT19=Alternate "Fathers and Sons" take 1969 Previously unreleased
EXTT20=Live 1971 Previously unreleased
EXTT21=Original hornless London mix 1971 Previously unreleased
EXTT22=1972
PLAYORDER=
